<?xml version="1.0" standalone="no"?><!DOCTYPE svg PUBLIC "-//W3C//DTD SVG 1.1//EN" "http://www.w3.org/Graphics/SVG/1.1/DTD/svg11.dtd"><svg t="1624338795744" class="icon" viewBox="0 0 1024 1024" version="1.1" xmlns="http://www.w3.org/2000/svg" p-id="2431" xmlns:xlink="http://www.w3.org/1999/xlink" width="200" height="200"><defs><style type="text/css"></style></defs><path d="M744.889 1010.393H280.99c-64.034 0-115.974-53.442-115.974-119.383V126.94c0-65.932 51.94-119.388 115.974-119.388H744.89c64.06 0 115.975 53.456 115.975 119.387V891.01c0 65.94-51.916 119.383-115.975 119.383z m-231.95-47.756c25.621 0 46.391-21.38 46.391-47.753 0-26.372-20.77-47.754-46.39-47.754-25.618 0-46.39 21.382-46.39 47.754 0 26.375 20.772 47.753 46.39 47.753zM605.72 55.306H420.16v47.754h185.559V55.306z m162.365 95.508h-510.29v668.56h510.29v-668.56z" p-id="2432"></path></svg>