<?xml version="1.0" standalone="no"?><!DOCTYPE svg PUBLIC "-//W3C//DTD SVG 1.1//EN" "http://www.w3.org/Graphics/SVG/1.1/DTD/svg11.dtd"><svg t="1638352382479" class="icon" viewBox="0 0 1024 1024" version="1.1" xmlns="http://www.w3.org/2000/svg" p-id="5051" xmlns:xlink="http://www.w3.org/1999/xlink" width="200" height="200"><defs><style type="text/css"></style></defs><path d="M219.662909 724.332966l496.303506 0 0 30.699186-496.303506 0 0-30.699186Z" p-id="5052"></path><path d="M219.662909 176.865173l496.303506 0 0 30.699186-496.303506 0 0-30.699186Z" p-id="5053"></path><path d="M467.814662 886.015346c-24.26259 0-44.002167-19.739577-44.002167-44.002167s19.739577-44.002167 44.002167-44.002167c24.26259 0 44.002167 19.739577 44.002167 44.002167S492.077252 886.015346 467.814662 886.015346zM467.814662 828.710198c-7.335059 0-13.302981 5.967922-13.302981 13.302981s5.967922 13.302981 13.302981 13.302981c7.335059 0 13.302981-5.967922 13.302981-13.302981S475.14972 828.710198 467.814662 828.710198z" p-id="5054"></path><path d="M510.281869 150.770865l-84.934414 0c-8.442276 0-15.349593-6.907317-15.349593-15.349593l0 0c0-8.442276 6.907317-15.349593 15.349593-15.349593l84.934414 0c8.442276 0 15.349593 6.907317 15.349593 15.349593l0 0C525.631462 143.862525 518.724145 150.770865 510.281869 150.770865z" p-id="5055"></path><path d="M560.784076 630.376061 560.784076 521.928117c-40.23947-7.260357-70.860884-42.541909-70.860884-84.841294l0-76.16468c0-47.536666 38.673811-86.210477 86.210477-86.210477l187.763384 0c47.536666 0 86.210477 38.673811 86.210477 86.210477l0 76.16468c0 47.536666-38.673811 86.210477-86.210477 86.210477L677.964916 523.2973 560.784076 630.376061zM576.133669 305.410851c-30.609135 0-55.511291 24.902156-55.511291 55.511291l0 76.16468c0 30.609135 24.902156 55.511291 55.511291 55.511291l15.349593 0 0 68.13889 74.568323-68.13889 97.845469 0c30.609135 0 55.511291-24.902156 55.511291-55.511291l0-76.16468c0-30.609135-24.902156-55.511291-55.511291-55.511291L576.133669 305.410851z" p-id="5056"></path><path d="M649.463792 957.199595l-363.2737 0c-53.603849 0-97.214089-43.61024-97.214089-97.214089L188.976002 155.871023c0-53.603849 43.61024-97.214089 97.214089-97.214089l363.2737 0c53.603849 0 97.214089 43.61024 97.214089 97.214089l0 102.945627-30.699186 0L715.978694 155.871023c0-36.676317-29.838585-66.514903-66.514903-66.514903l-363.2737 0c-36.676317 0-66.514903 29.838585-66.514903 66.514903l0 704.114482c0 36.676317 29.838585 66.514903 66.514903 66.514903l363.2737 0c36.676317 0 66.514903-29.838585 66.514903-66.514903L715.978694 540.737508l30.699186 0 0 319.247998C746.67788 913.588331 703.06764 957.199595 649.463792 957.199595z" p-id="5057"></path><path d="M588.154447 398.341381m-26.093285 0a25.499 25.499 0 1 0 52.18657 0 25.499 25.499 0 1 0-52.18657 0Z" p-id="5058"></path><path d="M671.550833 398.341381m-26.093285 0a25.499 25.499 0 1 0 52.18657 0 25.499 25.499 0 1 0-52.18657 0Z" p-id="5059"></path><path d="M755.456824 398.341381m-26.093285 0a25.499 25.499 0 1 0 52.18657 0 25.499 25.499 0 1 0-52.18657 0Z" p-id="5060"></path></svg>